<svg id="Layer_1" data-name="Layer 1" xmlns="http://www.w3.org/2000/svg" viewBox="0 0 1496.05 383.39"><defs><style>.cls-1,.cls-4{fill:#de0021;}.cls-1{fill-rule:evenodd;}.cls-2{fill:#255854;}.cls-3{fill:#464646;}</style></defs><title>logo-advec</title><path class="cls-1" d="M164.86,70.93c6.14,6.5,23.41,40.89-21.69,61.48C89.08,157.1,116.11,225,116.11,225s-2.11-17.47.65-28.47c12.31-41.77,44.93-39.66,70.84-67.59C212.56,102,171.51,73.4,164.86,70.93Z"/><path class="cls-1" d="M203.33,109.56s14.37,21.62-44.18,52.71c-53.88,28.62-27.29,89.92-27.29,89.92-3.59-53.17,15.65-60.72,57.32-86.11C233.48,139.09,203.33,109.56,203.33,109.56Z"/><path class="cls-1" d="M220.54,131.5s13.81,23.44-44.46,55.48-28.5,92.12-28.5,92.12c-7.68-57.43,34.56-66.11,63-86.86C255.45,166.68,220.54,131.5,220.54,131.5Z"/><path class="cls-2" d="M170.07,0C76.14,0,0,76.92,0,171.81S76.14,343.61,170.07,343.61s170.07-76.92,170.07-171.81S264,0,170.07,0Zm0,333.71C81.56,333.71,9.8,261.22,9.8,171.81S81.56,9.9,170.07,9.9s160.27,72.49,160.27,161.9S258.59,333.71,170.07,333.71Z"/><path class="cls-3" d="M170.07,383.39a70.68,70.68,0,0,0-37.1-19.3c-18.88-3.61-43.27,1.7-58.54,5.09S5.29,380.42,5.29,380.42l1.06-2.33C22,375.54,43,369.82,50,367.27s47.72-17.18,72.33-17.18,40.69,9.54,47.71,18c7-8.48,23.1-18,47.71-18s65.33,14.64,72.33,17.18,28,8.27,43.69,10.82l1.06,2.33s-53.88-7.85-69.15-11.24-39.66-8.7-58.54-5.09A70.68,70.68,0,0,0,170.07,383.39Z"/><path class="cls-3" d="M412.45,132l-4.83,15.89H397.06l18-56.08h13.06l18.22,56.08h-11L430.26,132H412.45Zm16.06-7.74L424.1,110.5c-1.08-3.41-2-7.24-2.83-10.48h-0.17c-0.83,3.25-1.66,7.16-2.66,10.48l-4.33,13.81h14.39Z"/><path class="cls-3" d="M452.05,138.54a22.84,22.84,0,0,0,10.4,2.91c4.49,0,6.49-1.83,6.49-4.49s-1.66-4.16-6.66-5.91c-7.9-2.75-11.23-7.07-11.15-11.82,0-7.16,5.91-12.73,15.31-12.73a23.79,23.79,0,0,1,10.73,2.41l-2,7.24a18.2,18.2,0,0,0-8.57-2.33c-3.66,0-5.66,1.75-5.66,4.24s1.91,3.83,7.07,5.66c7.32,2.66,10.73,6.41,10.82,12.4,0,7.32-5.74,12.65-16.47,12.65a26.14,26.14,0,0,1-12.31-2.83Z"/><path class="cls-3" d="M485.92,138.54a22.84,22.84,0,0,0,10.4,2.91c4.49,0,6.49-1.83,6.49-4.49s-1.66-4.16-6.66-5.91c-7.9-2.75-11.23-7.07-11.15-11.82,0-7.16,5.91-12.73,15.31-12.73A23.79,23.79,0,0,1,511,108.92l-2,7.24a18.2,18.2,0,0,0-8.57-2.33c-3.66,0-5.66,1.75-5.66,4.24s1.91,3.83,7.07,5.66c7.32,2.66,10.73,6.41,10.82,12.4,0,7.32-5.74,12.65-16.47,12.65a26.14,26.14,0,0,1-12.31-2.83Z"/><path class="cls-3" d="M527.52,130.55c0.25,7.32,6,10.48,12.48,10.48a30.45,30.45,0,0,0,11.23-1.83l1.5,7.07a38.17,38.17,0,0,1-14.15,2.5c-13.15,0-20.88-8.07-20.88-20.47,0-11.23,6.82-21.8,19.8-21.8,13.15,0,17.47,10.82,17.47,19.72a25.24,25.24,0,0,1-.33,4.33H527.52Zm17.81-7.16c0.08-3.74-1.58-9.9-8.4-9.9-6.32,0-9,5.74-9.4,9.9h17.81Z"/><path class="cls-3" d="M562.38,119.48c0-4.66-.08-8.57-0.33-12.07h8.82l0.42,6h0.25A14,14,0,0,1,584,106.5,11.68,11.68,0,0,1,595.25,114h0.17a15.35,15.35,0,0,1,5-5.08,13.53,13.53,0,0,1,8.15-2.41c6.74,0,13.56,4.58,13.56,17.56v23.88h-10V125.56c0-6.74-2.33-10.73-7.24-10.73a7.81,7.81,0,0,0-7.16,5.41,14.67,14.67,0,0,0-.5,3.41v24.3h-10V124.48c0-5.66-2.25-9.65-7-9.65-3.83,0-6.41,3-7.32,5.82a8.76,8.76,0,0,0-.58,3.33v24h-10V119.48Z"/><path class="cls-3" d="M631.77,147.94c0.17-2.75.33-7.24,0.33-11.4V88.86h10.23V113h0.17c2.5-3.91,6.91-6.49,13-6.49,9.9,0,17,8.24,16.89,20.55,0,14.56-9.24,21.8-18.39,21.8-5.24,0-9.9-2-12.81-7H641l-0.5,6.07h-8.74Zm10.57-16.72a11.29,11.29,0,0,0,.25,2.41,9.44,9.44,0,0,0,9.07,7.16c6.41,0,10.32-5.16,10.32-13.31,0-7.16-3.41-13-10.23-13a9.58,9.58,0,0,0-9.07,7.49,12.25,12.25,0,0,0-.33,2.66v6.57Z"/><path class="cls-3" d="M679.94,88.86h10.32v59.08H679.94V88.86Z"/><path class="cls-3" d="M707.73,130.55c0.25,7.32,6,10.48,12.48,10.48a30.45,30.45,0,0,0,11.23-1.83l1.5,7.07a38.17,38.17,0,0,1-14.15,2.5c-13.15,0-20.88-8.07-20.88-20.47,0-11.23,6.82-21.8,19.8-21.8,13.15,0,17.47,10.82,17.47,19.72a25.24,25.24,0,0,1-.33,4.33H707.73Zm17.81-7.16c0.08-3.74-1.58-9.9-8.4-9.9-6.32,0-9,5.74-9.4,9.9h17.81Z"/><path class="cls-3" d="M753.49,96.1c0,3.08-2.25,5.49-5.82,5.49A5.38,5.38,0,0,1,742,96.1,5.74,5.74,0,0,1,753.49,96.1Zm-10.9,51.84V107.42h10.32v40.52H742.59Z"/><path class="cls-3" d="M785.86,147.94l-0.67-4.49h-0.25a15.05,15.05,0,0,1-12,5.41c-8.15,0-12.73-5.91-12.73-12.06,0-10.23,9.07-15.39,24-15.31v-0.67c0-2.66-1.08-7.07-8.24-7.07a21.46,21.46,0,0,0-10.9,3l-2-6.66a29.17,29.17,0,0,1,14.64-3.58c13,0,16.72,8.24,16.72,17.06v14.64a65,65,0,0,0,.58,9.74h-9.24Zm-1.33-19.8c-7.24-.17-14.15,1.41-14.15,7.57,0,4,2.58,5.82,5.82,5.82a8.29,8.29,0,0,0,8-5.57,7.36,7.36,0,0,0,.33-2.25v-5.57Z"/><path class="cls-3" d="M858.24,88.86v47.68c0,4.16.17,8.65,0.33,11.4h-9.15L849,141.53h-0.17c-2.41,4.49-7.32,7.32-13.23,7.32-9.65,0-17.31-8.24-17.31-20.72-0.08-13.56,8.4-21.63,18.14-21.63,5.57,0,9.57,2.33,11.4,5.33H848v-23h10.23ZM848,124.31a14.41,14.41,0,0,0-.25-2.66,9,9,0,0,0-8.82-7.24c-6.57,0-10.23,5.82-10.23,13.4,0,7.41,3.66,12.81,10.15,12.81a9,9,0,0,0,8.82-7.24,11.4,11.4,0,0,0,.33-3v-6.07Z"/><path class="cls-3" d="M875.63,130.55c0.25,7.32,6,10.48,12.48,10.48a30.45,30.45,0,0,0,11.23-1.83l1.5,7.07a38.17,38.17,0,0,1-14.15,2.5c-13.15,0-20.88-8.07-20.88-20.47,0-11.23,6.82-21.8,19.8-21.8,13.15,0,17.47,10.82,17.47,19.72a25.24,25.24,0,0,1-.33,4.33H875.63Zm17.81-7.16c0.08-3.74-1.58-9.9-8.4-9.9-6.32,0-9,5.74-9.4,9.9h17.81Z"/><path class="cls-3" d="M927.3,92.61a103.3,103.3,0,0,1,16.31-1.17c10.48,0,17.72,2.16,22.88,6.49,5.41,4.41,8.74,11.07,8.74,20.63,0,10-3.41,17.47-8.74,22.3-5.57,5.08-14.48,7.65-25.38,7.65a111.79,111.79,0,0,1-13.81-.75V92.61Zm10.23,47.51a38.07,38.07,0,0,0,5.66.25c13.31,0.08,21.22-7.24,21.22-21.47,0.08-12.4-7.07-19.47-19.89-19.47a32.74,32.74,0,0,0-7,.58v40.11Z"/><path class="cls-3" d="M990.12,130.55c0.25,7.32,6,10.48,12.48,10.48a30.45,30.45,0,0,0,11.23-1.83l1.5,7.07a38.17,38.17,0,0,1-14.15,2.5c-13.15,0-20.88-8.07-20.88-20.47,0-11.23,6.82-21.8,19.8-21.8,13.15,0,17.47,10.82,17.47,19.72a25.24,25.24,0,0,1-.33,4.33H990.12Zm17.81-7.16c0.08-3.74-1.58-9.9-8.4-9.9-6.32,0-9,5.74-9.4,9.9h17.81Z"/><path class="cls-3" d="M1061.25,135.79c0,4.83.17,8.82,0.33,12.15h-9l-0.5-6.16h-0.17a14.65,14.65,0,0,1-13,7.07c-7.41,0-14.15-4.41-14.15-17.64v-23.8H1035v22c0,6.74,2.16,11.07,7.57,11.07a8.62,8.62,0,0,0,7.82-5.49,9.3,9.3,0,0,0,.58-3.16V107.42h10.23v28.37Z"/><path class="cls-3" d="M1071,138.54a22.84,22.84,0,0,0,10.4,2.91c4.49,0,6.49-1.83,6.49-4.49s-1.66-4.16-6.66-5.91c-7.9-2.75-11.23-7.07-11.15-11.82,0-7.16,5.91-12.73,15.31-12.73a23.79,23.79,0,0,1,10.73,2.41l-2,7.24a18.2,18.2,0,0,0-8.57-2.33c-3.66,0-5.66,1.75-5.66,4.24s1.91,3.83,7.07,5.66c7.32,2.66,10.73,6.41,10.82,12.4,0,7.32-5.74,12.65-16.47,12.65a26.14,26.14,0,0,1-12.31-2.83Z"/><path class="cls-4" d="M431.54,266.19L396.76,157.68h26.89l13.2,45.88c3.7,12.88,7.08,25.28,9.66,38.8H447c2.74-13,6.12-25.92,9.82-38.32l13.85-46.37h26.08L460.19,266.19H431.54Z"/><path class="cls-4" d="M523,165.56c0,6.76-5.15,12.24-13.2,12.24-7.73,0-12.88-5.47-12.72-12.24-0.16-7.08,5-12.4,12.88-12.4S522.82,158.48,523,165.56ZM497.71,266.19V187.46h24.47v78.73H497.71Z"/><path class="cls-4" d="M563.71,164.92v22.54h17.55v18H563.71V234c0,9.5,2.25,13.85,9.66,13.85a40,40,0,0,0,7.25-.64l0.16,18.51c-3.22,1.29-9,2.09-15.94,2.09-7.89,0-14.49-2.74-18.35-6.76-4.51-4.67-6.76-12.24-6.76-23.34v-32.2H529.26v-18h10.46V170.39Z"/><path class="cls-4" d="M666.91,225.94c0,28.82-20.45,42-41.54,42-23,0-40.73-15.13-40.73-40.57s16.74-41.7,42-41.7C650.81,185.69,666.91,202.27,666.91,225.94Zm-57,.8c0,13.52,5.63,23.67,16.1,23.67,9.5,0,15.62-9.5,15.62-23.67,0-11.75-4.51-23.67-15.62-23.67C614.27,203.08,609.92,215.15,609.92,226.74Zm41.54-73.57-19.64,24.47h-16.9l13.85-24.47h22.7Z"/><path class="cls-4" d="M676.57,213.38c0-11.59-.32-19.16-0.64-25.92H697l0.81,14.49h0.64c4-11.43,13.68-16.26,21.25-16.26a25.2,25.2,0,0,1,5.15.32v23a35,35,0,0,0-6.6-.64c-9,0-15.13,4.83-16.74,12.4a28.87,28.87,0,0,0-.48,5.47v39.93H676.57V213.38Z"/><path class="cls-4" d="M757.55,165.56c0,6.76-5.15,12.24-13.2,12.24-7.73,0-12.88-5.47-12.72-12.24-0.16-7.08,5-12.4,12.88-12.4S757.39,158.48,757.55,165.56ZM732.28,266.19V187.46h24.47v78.73H732.28Z"/><path class="cls-4" d="M815.67,266.19l-1.45-7.89h-0.48c-5.15,6.28-13.2,9.66-22.54,9.66-15.94,0-25.44-11.59-25.44-24.15,0-20.45,18.35-30.27,46.21-30.11v-1.13c0-4.19-2.25-10.14-14.33-10.14a44.28,44.28,0,0,0-21.73,6l-4.51-15.78c5.47-3.06,16.26-6.92,30.59-6.92,26.24,0,34.61,15.46,34.61,34V247c0,7.57.32,14.81,1.13,19.16H815.67ZM812.78,229c-12.88-.16-22.86,2.9-22.86,12.4,0,6.28,4.19,9.34,9.66,9.34a13.37,13.37,0,0,0,12.72-9,17.56,17.56,0,0,0,.48-4.19V229Z"/><path class="cls-4" d="M896.33,234.63c0.81,10.14,10.79,15,22.22,15a69.34,69.34,0,0,0,21.73-3.22L943.51,263c-8,3.22-17.87,4.83-28.5,4.83-26.73,0-42-15.46-42-40.09,0-20,12.4-42,39.77-42,25.44,0,35.1,19.8,35.1,39.28a58.11,58.11,0,0,1-.81,9.66H896.33Zm28.82-16.74c0-6-2.58-15.94-13.85-15.94-10.3,0-14.49,9.34-15.13,15.94h29Z"/><path class="cls-4" d="M957,212.58c0-9.82-.32-18.19-0.64-25.12H977l1.13,10.63h0.48c3.38-5,10.3-12.4,23.83-12.4,10.14,0,18.19,5.15,21.57,13.36h0.32a35.23,35.23,0,0,1,10.14-9.5,28.4,28.4,0,0,1,15-3.86c15.13,0,26.56,10.63,26.56,34.13v46.37h-23.83V223.36c0-11.43-3.7-18-11.59-18-5.63,0-9.66,3.86-11.27,8.53a20.47,20.47,0,0,0-1,6.28v46h-23.83V222.07c0-10-3.54-16.74-11.27-16.74-6.28,0-10,4.83-11.43,8.85a16.23,16.23,0,0,0-1,6.12v45.88H957V212.58Z"/><path class="cls-4" d="M1197.56,263.13c-4.51,2.25-14.65,4.67-27.85,4.67-37.51,0-56.83-23.34-56.83-54.26,0-37,26.4-57.64,59.25-57.64,12.72,0,22.38,2.58,26.73,4.83l-5,19.48a53,53,0,0,0-20.61-4c-19.48,0-34.61,11.75-34.61,35.9,0,21.73,12.88,35.42,34.77,35.42a61.29,61.29,0,0,0,20.45-3.54Z"/><path class="cls-4" d="M1206.74,213.38c0-11.59-.32-19.16-0.64-25.92h21.09l0.81,14.49h0.64c4-11.43,13.68-16.26,21.25-16.26a25.2,25.2,0,0,1,5.15.32v23a35,35,0,0,0-6.6-.64c-9,0-15.13,4.83-16.74,12.4a28.87,28.87,0,0,0-.48,5.47v39.93h-24.47V213.38Z"/><path class="cls-4" d="M1287.72,165.56c0,6.76-5.15,12.24-13.2,12.24-7.73,0-12.88-5.47-12.72-12.24-0.16-7.08,5-12.4,12.88-12.4S1287.56,158.48,1287.72,165.56Zm-25.28,100.62V187.46h24.47v78.73h-24.47Z"/><path class="cls-4" d="M1300.92,244.77c4.51,2.74,13.85,6,21.09,6,7.41,0,10.46-2.58,10.46-6.6s-2.42-6-11.59-9c-16.26-5.47-22.54-14.33-22.38-23.67,0-14.65,12.56-25.76,32-25.76,9.18,0,17.39,2.09,22.22,4.51l-4.35,16.91a38.63,38.63,0,0,0-17.07-4.51c-6,0-9.34,2.41-9.34,6.44,0,3.7,3.06,5.63,12.72,9,15,5.15,21.25,12.72,21.41,24.31,0,14.65-11.59,25.44-34.13,25.44-10.3,0-19.48-2.25-25.44-5.47Z"/><path class="cls-4" d="M1392.85,164.92v22.54h17.55v18h-17.55V234c0,9.5,2.25,13.85,9.66,13.85a40,40,0,0,0,7.24-.64l0.16,18.51c-3.22,1.29-9,2.09-15.94,2.09-7.89,0-14.49-2.74-18.35-6.76-4.51-4.67-6.76-12.24-6.76-23.34v-32.2h-10.46v-18h10.46V170.39Z"/><path class="cls-4" d="M1496,225.94c0,28.82-20.45,42-41.54,42-23,0-40.73-15.13-40.73-40.57s16.74-41.7,42-41.7C1479.95,185.69,1496,202.27,1496,225.94Zm-57,.8c0,13.52,5.63,23.67,16.1,23.67,9.5,0,15.62-9.5,15.62-23.67,0-11.75-4.51-23.67-15.62-23.67C1443.4,203.08,1439.05,215.15,1439.05,226.74Z"/></svg>