<?xml version="1.0" encoding="utf-8"?>
<!-- Generator: Adobe Illustrator 19.0.0, SVG Export Plug-In . SVG Version: 6.00 Build 0)  -->
<svg version="1.1" id="Layer_1" xmlns="http://www.w3.org/2000/svg" xmlns:xlink="http://www.w3.org/1999/xlink" x="0px" y="0px"
	 viewBox="0 0 350 172.5" style="enable-background:new 0 0 350 172.5;" xml:space="preserve">
<style type="text/css">
	.st0{fill:none;}
	.st1{fill:#FFFFFF;}
</style>
<g id="XMLID_59_">
	<path id="XMLID_32_" class="st0" d="M138.6,44.9c0.3-0.9,0.5-1.8,0.7-2.8c0.2-1,0.3-2,0.4-2.9c0.1-1,0.1-1.8-0.1-2.5
		c-0.6,0.8-1.2,1.8-1.6,3.1c-0.5,1.3-0.9,2.7-1.2,4.2c-0.3,1.5-0.6,3-0.8,4.5c-0.2,1.5-0.3,2.9-0.4,4.2c0.7-1,1.5-2.8,2.3-5.4
		C138.1,46.5,138.3,45.8,138.6,44.9z"/>
	<path id="XMLID_34_" class="st0" d="M124.4,21.3c0.9-1.7,1.5-3.4,1.9-5.2c0.3-1.8,0.3-3.5,0-5.2c-0.5-2.1-1.6-4-3.4-5.5l-0.7-0.1
		c-1.3,1.4-2.4,3-3.1,4.8c-0.8,1.8-1.3,3.8-1.7,5.9c-0.3,2.1-0.5,4.3-0.6,6.6c0,2.3-0.1,4.5-0.1,6.6c1.6-0.8,3.1-1.9,4.4-3.3
		C122.4,24.5,123.5,23,124.4,21.3z"/>
	<path id="XMLID_38_" class="st0" d="M177,93.2l-0.2,0c-4.9,3.5-8.2,7.9-9.9,13.1c-1.7,5.3-2.6,10.8-2.8,16.7
		c2.8-4.2,5.4-8.9,7.7-14c2.3-5.1,4.5-10.4,6.5-15.9C178,93,177.6,93.1,177,93.2z"/>
	<path id="XMLID_39_" class="st0" d="M89.2,75.5c2.1,1.1,4.2,1.4,6.4,0.9c1.7-0.4,3.3-1.2,4.9-2.4c1.6-1.2,2.9-2.6,4.2-4.3
		c1.2-1.7,2.2-3.6,3.1-5.6c0.8-2,1.4-4,1.6-6.1c0.2-1,0.3-1.9,0.4-2.9c0.1-0.9,0.1-1.9,0.2-3c-3.9-1.2-7.6-1.4-11.2-0.6
		c-1.9,0.4-3.8,1.2-5.7,2.2c-1.9,1.1-3.4,2.4-4.8,4c-1.3,1.6-2.3,3.4-2.9,5.4c-0.6,2-0.7,4.2-0.2,6.5C85.8,72.5,87.1,74.4,89.2,75.5
		z"/>
	<path id="XMLID_41_" class="st0" d="M134,99.2l-0.4-1.1l-4.1-0.6c-1.8,1.7-3.2,3.7-4.3,6.1c-1.1,2.3-2,4.8-2.5,7.4
		c-0.6,2.6-0.8,5.2-0.9,7.9c0,2.7,0.2,5.3,0.7,7.7l0.4,2c2.1-1.8,3.7-3.8,4.8-6.1c1.1-2.3,2-4.7,2.8-7.2c0.8-2.5,1.6-4.9,2.5-7.3
		c0.8-2.4,2-4.5,3.5-6.4C135,101.3,134.2,100.5,134,99.2z"/>
	<path id="XMLID_42_" class="st0" d="M158.6,54.6c1.1-0.4,2.1-1.3,2.8-2.5c0.7-1.3,1.3-2.6,1.7-4c0.4-1.4,0.7-2.7,0.8-3.9
		c0.2-1.2,0.2-1.9,0.2-2l0-0.2c-0.5-0.1-1,0-1.6,0.2c-0.6,0.2-1.1,0.2-1.5,0.1c-1.4-0.4-2.3-1.1-2.8-2.1c-0.6,2.4-0.8,4.8-0.6,7.3
		C157.8,49.9,158.1,52.3,158.6,54.6z"/>
	<path id="XMLID_43_" class="st0" d="M210.3,92c0.4-1.3,0.8-2.7,1.1-4.2c0.3-1.5,0.5-3,0.7-4.4c0.2-1.4,0.2-2.7,0-3.8
		c-1,1.1-1.8,2.6-2.6,4.6c-0.8,2-1.4,4-2,6.2c-0.5,2.2-1,4.4-1.3,6.7c-0.4,2.3-0.6,4.4-0.7,6.2c1.1-1.5,2.3-4.2,3.7-8
		C209.5,94.4,209.9,93.3,210.3,92z"/>
	<path id="XMLID_46_" class="st1" d="M80.7,76.6c1,1.6,2.3,2.9,3.8,4.1c1.5,1.1,3.3,1.9,5.3,2.4c2,0.5,4.2,0.4,6.5-0.1
		c6-1.3,10.8-4.3,14.5-9c3.4-4.4,5.4-10.1,5.8-17c1.3,1.2,2.6,2.6,4,4.5c1.7,2.2,3.4,5.1,5.2,8.7c1.8,3.6,3.7,8.2,5.8,13.9
		c0.1,0.7,0.4,1.1,0.9,1.4c0.4,0.3,0.8,0.3,1.2,0.3c0.1,0,0.1,0,0.1-0.1c0,0,0-0.1,0.1-0.1l0.3-0.1c0.1-0.1,0.1-0.2,0.2-0.2
		c0.1-0.1,0.2-0.1,0.2-0.2l0.3-0.4c0.1,0,0.2-0.2,0.2-0.5c0-0.3,0-0.6,0.1-0.7l0-0.1c-0.5-2.4-1.4-5.4-2.6-9
		c-1.2-3.6-2.8-7.2-4.7-10.8c-1.9-3.6-4.2-6.9-6.8-9.9c-1.3-1.6-2.8-2.9-4.4-3.9l0,0c0-1.6,0-3,0.1-4c0-1,0-2,0-3c0-1,0-2.1,0-3.3
		c0-1.2,0-2.7-0.1-4.5c2.2-0.6,4.3-1.8,6.3-3.6c2-1.8,3.8-4,5.2-6.5c1.4-2.5,2.5-5.1,3.1-8c0.7-2.8,0.7-5.5,0.2-7.9
		c-0.3-1.3-0.8-2.6-1.6-3.7c-0.7-1.1-1.6-2.1-2.6-2.9c-1-0.8-2.1-1.4-3.3-1.8c-1.2-0.4-2.4-0.4-3.5-0.2c-1.4,0.3-2.7,1-3.8,2.1
		c-1.1,1.1-2.1,2.3-2.9,3.6c-0.8,1.3-1.5,2.8-2.1,4.3c-0.6,1.5-1,2.9-1.2,4.1c-0.5,2.8-0.9,5.7-1,8.5c-0.1,2.9-0.1,5.7,0,8.7
		c-1.3,0.1-2.9,0.2-4.9,0.1c-2,0-4-0.1-6-0.3c-2-0.2-3.9-0.5-5.7-0.8c-1.8-0.4-3.1-0.8-3.9-1.4c-0.7-0.2-1.1-0.2-1.3-0.2
		c-0.5,0.1-0.9,0.4-1.2,0.8c-0.3,0.5-0.4,0.9-0.3,1.5c0,0.2,0.2,0.5,0.6,0.9c1.2,0.9,2.8,1.6,4.8,2.1c2,0.5,4.1,0.9,6.3,1.1
		c2.2,0.3,4.4,0.4,6.5,0.4c2.1,0,3.8,0,5.2,0c0.1,1.5,0.2,2.7,0.2,3.4c0,0.7,0,1.4,0,2c0,0.6,0,1.2,0,2c0,0.7,0,1.9,0,3.3
		c-1.9-0.7-4-1-6.2-1c-2.2,0-4.4,0.3-6.5,0.7c-1.9,0.4-3.7,1-5.4,1.7c-1.7,0.7-3.4,1.5-4.9,2.4c-1.4,0.8-2.6,2-3.8,3.5
		c-1.2,1.5-2.2,3.2-3,5.2c-0.8,2-1.4,4.1-1.7,6.3c-0.3,2.2-0.2,4.4,0.3,6.5C79,73.4,79.7,75,80.7,76.6z M116.7,22.6
		c0-2.3,0.2-4.5,0.6-6.6c0.3-2.1,0.9-4.1,1.7-5.9c0.8-1.8,1.8-3.4,3.1-4.8l0.7,0.1c1.8,1.5,2.9,3.4,3.4,5.5c0.4,1.7,0.4,3.4,0,5.2
		c-0.3,1.8-1,3.5-1.9,5.2c-0.9,1.7-2,3.2-3.3,4.6c-1.3,1.4-2.8,2.5-4.4,3.3C116.7,27,116.7,24.8,116.7,22.6z M85.4,63.2
		c0.6-2,1.6-3.8,2.9-5.4c1.3-1.6,2.9-2.9,4.8-4c1.9-1.1,3.7-1.8,5.7-2.2c3.5-0.8,7.3-0.6,11.2,0.6c-0.1,1-0.2,2-0.2,3
		c-0.1,0.9-0.2,1.9-0.4,2.9c-0.2,2.1-0.8,4.1-1.6,6.1c-0.8,2-1.9,3.9-3.1,5.6c-1.2,1.7-2.6,3.1-4.2,4.3c-1.6,1.2-3.2,2-4.9,2.4
		c-2.1,0.5-4.3,0.2-6.4-0.9c-2.1-1.1-3.4-3-4-5.7C84.7,67.5,84.8,65.3,85.4,63.2z"/>
	<path id="XMLID_70_" class="st1" d="M129.2,44.8c-0.3,2.3-0.5,4.3-0.6,6c-0.1,1-0.1,2,0.1,3c0.1,0.9,0.3,1.9,0.5,2.7
		c-0.3,0.5-0.4,0.9-0.3,1.5c0.1,0.6,0.4,1,0.9,1.1c0.3,1.6,0.9,3,1.5,4.4c0.7,1.4,1.5,2.5,2.6,3.5c1,0.9,2.2,1.6,3.5,2
		c1.3,0.4,2.8,0.4,4.4,0.1c0.7-0.2,1.6-0.7,2.5-1.5c0.9-0.8,1.5-1.3,1.7-1.4c0.6-0.4,1.4-1.3,2.4-2.6c1-1.3,1.9-2.7,2.8-4.1
		c0.4-0.7,0.8-1.4,1.2-2.1c0.5,1.1,1.2,2.1,2.1,2.9c1.4,1.2,2.7,1.8,4,1.6c0.9-0.3,1.7-0.6,2.6-0.8c0.8-0.2,1.6-0.5,2.3-1
		c1.6-1.1,3-2.5,4.1-4.2c1.1-1.8,1.9-3.6,2.5-5.5c0.5-1.9,0.9-3.8,1-5.6c0.1-1.9,0.1-3.3-0.2-4.4c-0.3-1.4-0.9-2.6-1.8-3.6
		c2-1.6,4.1-3.2,6.2-4.7c2.1-1.5,4.2-3,6.3-4.5c0.6-0.6,0.9-1.2,0.7-1.9c-0.3-1.2-1.1-1.6-2.5-1.3c-3.2,1.6-6.5,3.3-9.9,5.1
		c-3.4,1.8-6.5,3.8-9.4,6c-0.1-0.1-0.1-0.1-0.2-0.2l0-0.1l-0.9-1.3c-0.6-0.6-1.2-0.8-1.9-0.6c-1,0.2-1.8,1.2-2.7,3
		c-0.8,1.8-1.5,3.8-2.1,6.2c-0.6,2.3-1,4.7-1.2,7.1c0,0.5-0.1,1-0.1,1.4c-0.3,0.2-0.5,0.4-0.6,0.9c-0.2,1.1-0.7,2.2-1.4,3.3
		c-0.7,1.1-1.5,2.2-2.3,3.2c-0.8,1-1.6,1.9-2.3,2.7c-0.7,0.8-1.3,1.3-1.7,1.6c-0.4,0.5-0.8,0.8-1.2,1c-0.4,0.2-0.8,0.3-1.1,0.4
		c-1.4,0.3-2.5-0.2-3.3-1.7c-0.8-1.4-1.3-2.9-1.7-4.5c1.5-0.8,2.8-1.8,3.9-3.1c1.1-1.3,2-2.7,2.8-4.3c0.8-1.6,1.4-3.2,1.9-5
		c0.5-1.7,1-3.5,1.4-5.2c0.2-0.7,0.3-1.5,0.3-2.6c0-1-0.2-2.1-0.4-3.1c-0.4-1.8-1.1-3.3-2.1-4.5c-1-1.2-2.6-1.6-4.7-1.1
		c-2.1,0.5-3.8,1.5-5.1,3.3c-1.3,1.7-2.4,3.7-3.1,5.9C130.1,40.2,129.5,42.5,129.2,44.8z M158.2,40.1c0.4,1,1.4,1.7,2.8,2.1
		c0.4,0.1,0.9,0,1.5-0.1c0.6-0.2,1.1-0.2,1.6-0.2l0,0.2c0,0.1,0,0.8-0.2,2c-0.2,1.2-0.4,2.5-0.8,3.9c-0.4,1.4-0.9,2.8-1.7,4
		c-0.7,1.3-1.7,2.1-2.8,2.5c-0.5-2.3-0.8-4.7-1-7.2C157.4,44.9,157.6,42.5,158.2,40.1z M136,48.3c0.2-1.5,0.5-3,0.8-4.5
		c0.3-1.5,0.7-2.8,1.2-4.2c0.5-1.3,1-2.3,1.6-3.1c0.2,0.7,0.2,1.6,0.1,2.5c-0.1,1-0.2,1.9-0.4,2.9c-0.2,1-0.4,1.9-0.7,2.8
		s-0.5,1.6-0.7,2.2c-0.8,2.6-1.6,4.4-2.3,5.4C135.7,51.2,135.8,49.9,136,48.3z"/>
	<path id="XMLID_74_" class="st1" d="M180.4,86.2l-0.4,1.6c-1-0.5-2.2-0.8-3.4-0.7l-0.8,0.2c-3.3,0.6-6.2,2.4-8.8,5.4
		c-2.6,3-4.8,6.6-6.6,10.8c-1.8,4.2-3,8.7-3.6,13.5c-0.3,1.9-0.4,3.7-0.4,5.5c-0.8,1.2-1.6,2.4-2.5,3.8c-1.1,1.7-2.2,3.2-3.5,4.7
		c-1.2,1.5-2.7,2.5-4.3,2.9c-0.4-0.9-0.7-1.8-0.9-2.8c-0.3-1.8-0.5-3.9-0.4-6.4c0.1-2.5,0.2-5,0.4-7.5c0.2-2.5,0.4-5,0.6-7.4
		c0.2-2.4,0.3-4.3,0.4-5.8c-0.3-1.8-1-3.2-2-4.1c-1-0.9-2.3-1.2-3.8-0.9c-0.2,0-0.4,0.1-0.6,0.2c-0.2,0.1-0.3,0.2-0.6,0.2
		c0.1-0.2,0.1-0.5,0.1-0.7c0-0.2,0-0.5-0.1-0.9l-0.1-0.7c-0.4-2.2-1.6-4.1-3.5-5.5c-1.9-1.4-4.1-1.9-6.5-1.4c-2.6,0.5-5,2-7.4,4.5
		c-2.4,2.5-4.3,5.7-5.9,9.6c-1.6,3.9-2.7,8.1-3.3,12.7c-0.6,4.6-0.4,9.3,0.5,14c0.6,3.4,2,5.8,4.2,7.4c2.2,1.6,4.7,2.1,7.6,1.5
		c0.9-0.2,1.9-0.7,3-1.5c1.1-0.8,2.2-1.8,3.3-3c1.1-1.1,2-2.2,2.9-3.3c0.9-1.1,1.6-2,2.2-2.9c0.3,1.3,0.6,2.8,1.1,4.3
		c0.5,1.5,1.1,3,1.9,4.4c0.8,1.4,1.8,2.4,3,3.2c1.2,0.8,2.6,1,4.1,0.7c2-0.4,3.9-1.4,5.8-3.2c1.8-1.7,3.4-3.6,4.8-5.6
		c0.3-0.5,0.6-0.9,0.9-1.3c0.4,0.6,0.8,1.1,1.3,1.3c0.8,0.3,2.3,0.8,4.4,1.4l0.8-0.2c1.5-0.3,3-1.3,4.6-3.1c1.6-1.8,3.2-3.9,4.8-6.3
		c1.6-2.4,3.1-5,4.6-7.7c1.5-2.7,2.7-5,3.7-7.1c0,0,4.5-7.6,8.5-21.3c0.1-0.4,0.3-0.8,0.4-1.2c1.8-5.2,3.2-10.4,4.3-15.5
		c1.2-5.5,2.1-10.8,2.8-15.8c0.2-1.5,0.4-3.3,0.7-5.2c0.3-1.9,0.5-3.9,0.6-5.9c0.1-2,0.2-4,0.3-6c0-2-0.1-3.8-0.4-5.5
		c-0.4-2.2-1.2-4-2.3-5.2c-1.1-1.2-2.7-1.6-4.8-1.2c-2.1,0.4-3.8,1.7-5,3.9c-1.2,2.2-2.1,4.7-2.7,7.4c-0.6,2.7-1,5.5-1.2,8.3
		c-0.2,2.8-0.4,5-0.6,6.6c-0.5,5.3-0.9,10.7-1.2,16.1C180.8,75.5,180.6,80.9,180.4,86.2z M132.8,107.9c-0.8,2.4-1.7,4.8-2.5,7.3
		c-0.8,2.5-1.8,4.9-2.8,7.2c-1.1,2.3-2.7,4.3-4.8,6.1l-0.4-2c-0.5-2.5-0.7-5-0.7-7.7c0-2.7,0.3-5.3,0.9-7.9c0.6-2.6,1.4-5.1,2.5-7.4
		c1.1-2.3,2.6-4.3,4.3-6.1l4.1,0.6l0.4,1.1c0.3,1.3,1,2.1,2.4,2.3C134.8,103.4,133.7,105.6,132.8,107.9z M171.9,109
		c-2.3,5.1-4.9,9.8-7.7,14c0.2-5.8,1.1-11.4,2.8-16.7c1.7-5.3,5-9.6,9.9-13.1l0.2,0c0.6-0.1,1-0.1,1.4-0.1
		C176.4,98.6,174.2,103.9,171.9,109z"/>
	<path id="XMLID_76_" class="st1" d="M190.7,87.9c-0.1,0.4-0.3,0.7-0.4,1.2C190.5,88.7,190.6,88.3,190.7,87.9z"/>
	<path id="XMLID_77_" class="st1" d="M233.6,53.5c0.9,0.7,1.8,1,2.7,0.8c0.9-0.2,1.6-0.7,2.1-1.5c0.5-0.8,0.6-1.8,0.4-2.8
		c-0.1-0.8-0.6-1.6-1.3-2.4c-0.8-0.4-1.7-0.6-2.7-0.4c-0.9,0.2-1.6,0.7-2.2,1.5c-0.5,0.8-0.7,1.7-0.6,2.6
		C232.2,52,232.7,52.7,233.6,53.5z"/>
	<path id="XMLID_11_" class="st0" d="M210.3,92c0.4-1.3,0.8-2.7,1.1-4.2c0.3-1.5,0.5-3,0.7-4.4c0.2-1.4,0.2-2.7,0-3.8
		c-1,1.1-1.8,2.6-2.6,4.6c-0.8,2-1.4,4-2,6.2c-0.5,2.2-1,4.4-1.3,6.7c-0.4,2.3-0.6,4.4-0.7,6.2c1.1-1.5,2.3-4.2,3.7-8
		C209.5,94.4,209.9,93.3,210.3,92z"/>
	<path id="XMLID_12_" class="st0" d="M321.2,63.5l-0.4-1.1l-4.1-0.6c-1.8,1.7-3.2,3.7-4.3,6.1c-1.1,2.3-2,4.8-2.5,7.4
		c-0.6,2.6-0.8,5.2-0.9,7.9c0,2.7,0.2,5.3,0.7,7.7l0.4,2c2.1-1.8,3.7-3.8,4.8-6.1c1.1-2.3,2-4.7,2.8-7.2c0.8-2.5,1.6-4.9,2.5-7.3
		c0.8-2.4,2-4.5,3.5-6.4C322.2,65.6,321.5,64.8,321.2,63.5z"/>
	<path id="XMLID_18_" class="st1" d="M349.9,85.8c-0.3-1.8-1.4-2.5-3.2-2.2c-0.9,0.2-1.8,0.9-2.7,2.3c-0.9,1.4-1.9,2.9-3,4.6
		c-1.1,1.7-2.2,3.2-3.5,4.8c-1.2,1.5-2.7,2.5-4.3,2.9c-0.4-0.9-0.7-1.8-0.9-2.8c-0.3-1.8-0.5-3.9-0.4-6.4c0.1-2.5,0.2-5,0.4-7.5
		c0.2-2.5,0.4-5,0.6-7.4c0.2-2.4,0.3-4.3,0.4-5.8c-0.3-1.8-1-3.2-2-4.1c-1-0.9-2.3-1.2-3.8-0.9c-0.2,0-0.4,0.1-0.6,0.2
		c-0.2,0.1-0.3,0.2-0.6,0.2c0.1-0.2,0.1-0.5,0.1-0.7c0-0.2,0-0.5-0.1-0.9l-0.1-0.7c-0.4-2.2-1.6-4.1-3.5-5.5
		c-1.9-1.4-4.1-1.9-6.5-1.4c-2.6,0.5-5,2-7.4,4.5c-2.4,2.5-4.3,5.7-5.9,9.6c-1.6,3.9-2.7,8.1-3.3,12.7c-0.6,4.5-0.4,9.1,0.4,13.7
		c-0.1,0.1-0.2,0.1-0.3,0.2c-2.4,1.5-4.8,3-7.2,4.5c-2.4,1.5-4.9,2.8-7.5,3.8c0-4.9,0-8.9,0.1-12.1c0-3.1-0.2-6-0.6-8.4
		c-0.4-2-1-3.9-1.7-5.5c-0.8-1.7-1.8-3.3-3.2-5c-1.4-1.7-3-3.4-5-5.3c-2-1.9-4.4-4.2-7.2-6.8c-1.4-0.4-2.5-0.6-3.6-0.4
		c-1.2,0.2-2.2,0.9-2.9,1.9c-0.6,1.6-1.4,4.2-2.4,7.7c-1,3.5-1.9,7.2-3,11.1c-1,3.9-2,7.7-3,11.4c-0.7,2.5-1.3,4.7-1.8,6.4
		c-1.3,4.8-2.6,7.9-3.8,9.9c-0.2,0.2-2.2,3.4-4.6,3.4c0,0,0,0-0.1,0c0,0,0,0,0,0c-0.2,0-0.5-0.1-0.7-0.1c-1.4-0.4-2.1-1.9-2.3-2.6
		c-0.2-0.6-0.3-1.2-0.5-2c-0.5-2.9-0.8-6.8-0.9-11.7c0-4.9-0.1-10.2-0.3-15.8c-0.4-2.1-1.2-3.1-2.5-2.9c-1,0.2-2,1.3-3.1,3.2
		c-1,4.6-1.9,9.5-2.7,14.5c-0.3,1.9-0.4,3.9-0.4,6c0,0,0,0.1,0,0.2c0,1.6-1.7,5-2.8,6.7c-1.1,1.7-2.3,3.2-3.6,4.7
		c-1.3,1.5-2.5,2.8-3.6,3.9c-1.1,1.1-2,1.9-2.6,2.4c-0.7,0.7-1.3,1.2-1.9,1.4c-0.6,0.2-1.2,0.4-1.7,0.5c-2.1,0.4-3.7-0.5-4.8-2.7
		c-1.1-2.2-1.6-2.9-2-5.3c4.3-3.4,4.3-4.1,6-6c1.7-1.9,2.9-4.1,4.1-6.4c1.2-2.3,2.3-4.8,3.1-7.4c0.8-2.6,1.6-5.2,2.3-7.8
		c0.4-1,0.6-2.3,0.6-3.9c0-1.6-0.2-3.1-0.5-4.7c-0.5-2.7-1.5-5-3-6.8c-1.5-1.9-3.8-2.5-7-1.9c-3.1,0.6-5.7,2.2-7.8,4.7
		c-2.1,2.5-3.7,5.5-5,8.8c-1.2,3.3-2.1,6.7-2.7,10.2c-0.6,3.5-1,6.5-1.2,8.9c-0.2,1.5-0.1,3.5,0,4.9c0.2,1.4,0.3,2.4,0.6,3.7
		c0,0,0,0.3,0.4,1.9c-46.6,62.3-68.9,60.1-78.4,51.5c-1.9-1.7-3.2-3.6-4.2-5.3c0,0,0,0,0,0c-1.3-2.5-2.3-4.8-3.1-7.6
		c-0.8-2.8-1.5-5.6-2-8.5c-1-5.4-1.7-10.8-2-16.3c-0.3-5.5-0.7-10.8-1.1-15.9c-0.1-2-0.2-4.2-0.1-6.7c0.1-2.5-0.1-4.9-0.6-7.3
		c-0.4-2-1.1-3.7-2.1-5.2c-1-1.4-2.3-2-3.9-1.7c-0.2,0-0.5,0.1-0.9,0.2c-0.4,0.1-0.7,0.3-1,0.5c-3.6,7.5-6.4,13.5-8.5,17.8
		c-2.1,4.3-3.6,7.6-4.7,9.8c-1,2.2-1.8,3.6-2.1,4.3c-0.4,0.7-0.7,1.3-0.8,1.6c-0.5,0.7-0.8,1.3-1.1,2c-0.3,0.7-0.6,1.4-1.1,2l0.3-2
		c0.2-6,0.5-12,0.9-18.2c0.5-6.2,0.1-12.2-1-18.1c-2.1-10.9-6-15.8-12-14.7c-2.6,0.5-5.5,2.2-8.7,5.1c-3.2,2.9-6.3,6.9-9.3,11.9
		l-0.7,1c0.5-3.2,0.8-6.8,0.8-10.5c0-3.8-0.4-7.6-1.1-11.6c-1.3-7-3.3-11.6-5.9-14c-2.6-2.4-5.7-3.2-9.3-2.5
		c-2.6,0.5-5.3,1.6-8.1,3.4c-2.8,1.7-5.5,3.8-8,6.1c-2.5,2.3-4.8,4.8-6.7,7.3c-2,2.5-3.4,4.7-4.3,6.7C3,80.8,1.4,84.7,0.7,88
		c-0.8,3.3-0.9,6.4-0.4,9.2c0.7,3.7,2.4,7.3,5.2,10.8c2.7,3.5,6.3,7.7,10.7,12.7c0.9,1.1,2,1.5,3.2,1.3c0.7-0.1,1.2-0.5,1.6-1.1
		c0.4-0.6,0.5-1.4,0.3-2.4c-3.3-3.9-6.2-7.5-8.6-10.8c-2.5-3.3-4-6.7-4.7-10.3C7.4,94,7.8,89.8,9.4,85.2c1.6-4.7,4.6-9.8,9-15.4
		c2.5-2.9,4.6-5.1,6.5-6.5c1.9-1.5,3.6-2.3,5.2-2.6c2.2-0.4,4,0.3,5.2,2.1c1.2,1.8,2.1,4.3,2.7,7.4c0.5,2.5,0.7,5.1,0.8,8
		c0.1,2.8,0,5.7-0.3,8.5c-0.4,4.6-0.9,8.5-1.4,11.7c-0.5,3.2-1.1,6.2-1.8,9c-0.7,2.8-1.5,5.7-2.4,8.7c-0.9,3-1.9,6.8-3.2,11.3
		c-0.6,2-1.3,4.1-2.1,6.5c-0.8,2.4-1.6,4.8-2.3,7.3c-0.7,2.5-1.3,5-1.7,7.4c-0.5,2.4-0.6,4.6-0.3,6.7c1,3.5,3.1,5,6.2,4.4
		c0.9-0.2,1.9-0.8,3.1-1.8c2.7-4,5-8.3,6.8-12.8c1.8-4.5,3.5-9.1,5-13.9c1.5-4.7,3-9.4,4.4-14.1c1.4-4.7,3.1-9.3,5.1-13.7
		c0.3-0.9,1-2.3,2.1-4.3c1.1-2,2.3-4.1,3.5-6.2c1.3-2.1,2.6-4,3.9-5.7c1.3-1.7,2.4-2.6,3.3-2.8c0.4,0.9,0.7,1.8,1,2.8
		c0.3,1,0.5,1.9,0.7,2.8c0.7,3.6,0.9,7.3,0.7,11c-0.2,2.1-0.4,4.9-0.5,8.2c-0.2,3.4-0.3,6.8-0.5,10.5c-0.1,3.6-0.2,7.2-0.1,10.7
		c0.1,3.5,0.3,6.4,0.8,8.8c0.3,1.8,1,3.3,2,4.4c1,1.1,2.2,1.6,3.6,1.3c1.1-0.2,2.7-1.9,4.6-5.1c2-3.2,4.1-6.9,6.3-11.2
		c2.3-4.3,4.4-8.9,6.5-13.6c2.1-4.8,3.8-8.8,5.3-12.2l0.7,6.5c0.1,1.6,0.2,3.7,0.5,6.1c0.2,2.5,0.5,5.1,0.7,8c0.2,2.9,0.6,5.9,1,9
		c0.4,3.1,0.9,6.2,1.5,9.2c0.9,4.7,2,8.9,3.3,12.7c0.6,1.9,1.4,3.5,2.2,4.8l0,0l0,0c26.6,41.5,81.3-24.7,92.1-38.5
		c0.9,1.7,2,3.2,3.2,4.4c1.5,1.5,3.2,2.5,5.2,3.2c2,0.7,4.2,0.8,6.7,0.3c1.1-0.2,2.4-0.9,3.9-2.1c1.5-1.2,2.3-1.9,2.7-2.1
		c0.9-0.6,2.2-1.9,3.7-3.8c1.6-1.9,3-3.9,4.4-6.1c0.5-0.8,1-1.5,1.4-2.3c0.6,3.3,1.9,5.8,3.8,7.7c1.9,1.9,4.6,2.5,7.9,1.9
		c0.5-0.1,0.9-0.2,1.4-0.3c6.7-1.4,13.3-20.2,13.3-20.2c0.5-1.3,1.1-2.7,1.6-4.2c0.8-2.2,1.6-4.6,2.4-7.2c0.8-2.5,1.5-5,2.2-7.3
		c0.7-2.3,1.3-4.4,1.9-6.2c0.6-1.8,1-3.1,1.4-3.8c2.5,2.7,4.3,5.2,5.6,7.7c1.3,2.4,2.2,5.2,2.8,8.2c0.4,2,0.6,4.3,0.8,6.8
		c0.1,2,0.1,3.9-0.1,6c-0.2,2-0.1,4,0.2,5.9c0.3,1.7,1.2,3.4,2.8,5.1c1.5,1.7,3.3,2.4,5.3,2l1.7-0.3c1.3-0.8,3.2-2,5.4-3.5
		c2.3-1.5,4.4-3.1,6.5-4.8c2-1.6,3.7-3.2,5.2-4.7c0.6,0.9,1.3,1.6,2.1,2.2c2.1,1.6,4.7,2.1,7.6,1.5c0.9-0.2,1.9-0.7,3-1.5
		c1.1-0.8,2.2-1.8,3.3-3c1.1-1.1,2-2.2,2.9-3.3c0.9-1.1,1.6-2,2.2-2.9c0.3,1.3,0.6,2.8,1.1,4.3c0.5,1.5,1.1,3,1.9,4.4
		c0.8,1.4,1.8,2.4,3,3.2c1.2,0.8,2.6,1,4.1,0.7c2-0.4,3.9-1.4,5.8-3.2c1.8-1.7,3.4-3.6,4.8-5.6c1.4-2,2.5-3.9,3.5-5.7
		c1-1.8,1.7-3.1,2.2-3.7C350,87.3,350.1,86.5,349.9,85.8z M206.2,97.1c0.4-2.3,0.8-4.5,1.3-6.7c0.5-2.2,1.2-4.3,2-6.2
		c0.8-2,1.7-3.5,2.6-4.6c0.2,1.1,0.2,2.4,0,3.8c-0.2,1.4-0.4,2.9-0.7,4.4c-0.3,1.5-0.7,2.9-1.1,4.2c-0.4,1.3-0.8,2.4-1.1,3.3
		c-1.4,3.9-2.6,6.5-3.7,8C205.6,101.5,205.8,99.4,206.2,97.1z M320.1,72.3c-0.8,2.4-1.7,4.8-2.5,7.3c-0.8,2.5-1.8,4.9-2.8,7.2
		c-1.1,2.3-2.7,4.3-4.8,6.1l-0.4-2c-0.5-2.5-0.7-5-0.7-7.7c0-2.7,0.3-5.3,0.9-7.9c0.6-2.6,1.4-5.1,2.5-7.4c1.1-2.3,2.6-4.3,4.3-6.1
		l4.1,0.6l0.4,1.1c0.3,1.3,1,2.1,2.4,2.3C322.1,67.8,320.9,69.9,320.1,72.3z"/>
</g>
</svg>
